<svg xmlns="http://www.w3.org/2000/svg" viewBox="0 0 64 64">
  <defs>
    <linearGradient id="g" x1="8" y1="8" x2="56" y2="56" gradientUnits="userSpaceOnUse">
      <stop stop-color="#7c5cff" offset="0" />
      <stop stop-color="#3dd6ff" offset="1" />
    </linearGradient>
  </defs>
  <rect x="6" y="6" width="52" height="52" rx="18" fill="url(#g)" />
  <path
    d="M32 14c-9.94 0-18 8.06-18 18s8.06 18 18 18 18-8.06 18-18-8.06-18-18-18Zm0 6a12 12 0 1 1 0 24 12 12 0 0 1 0-24Z"
    fill="rgba(255,255,255,0.92)"
  />
  <path
    d="M32 24a8 8 0 0 0-8 8h6a2 2 0 1 1 2 2h-2v6h2a8 8 0 1 0 0-16Z"
    fill="rgba(255,255,255,0.92)"
  />
</svg>
